<svg width="181" height="27" viewBox="0 0 181 27" fill="none" xmlns="http://www.w3.org/2000/svg">
<path d="M5.625 6V3L0 8L5.625 13V10C9.375 9 12.1875 9.5 15 12C13.125 7 9.84375 6 5.625 6Z" fill="#6A6A6A"/>
<path d="M20.652 14V4.2H26.882V5.096H21.394L21.66 4.83L21.674 14H20.652ZM29.3169 14.07C28.6076 14.07 27.9682 13.9113 27.3989 13.594C26.8389 13.2673 26.3956 12.824 26.0689 12.264C25.7422 11.6947 25.5789 11.046 25.5789 10.318C25.5789 9.58067 25.7422 8.932 26.0689 8.372C26.3956 7.812 26.8389 7.37333 27.3989 7.056C27.9589 6.73867 28.5982 6.58 29.3169 6.58C30.0449 6.58 30.6889 6.73867 31.2489 7.056C31.8182 7.37333 32.2616 7.812 32.5789 8.372C32.9056 8.932 33.0689 9.58067 33.0689 10.318C33.0689 11.046 32.9056 11.6947 32.5789 12.264C32.2616 12.824 31.8182 13.2673 31.2489 13.594C30.6796 13.9113 30.0356 14.07 29.3169 14.07ZM29.3169 13.188C29.8489 13.188 30.3202 13.0713 30.7309 12.838C31.1416 12.5953 31.4636 12.2593 31.6969 11.83C31.9396 11.3913 32.0609 10.8873 32.0609 10.318C32.0609 9.73933 31.9396 9.23533 31.6969 8.806C31.4636 8.37667 31.1416 8.04533 30.7309 7.812C30.3202 7.56933 29.8536 7.448 29.3309 7.448C28.8082 7.448 28.3416 7.56933 27.9309 7.812C27.5202 8.04533 27.1936 8.37667 26.9509 8.806C26.7082 9.23533 26.5869 9.73933 26.5869 10.318C26.5869 10.8873 26.7082 11.3913 26.9509 11.83C27.1936 12.2593 27.5202 12.5953 27.9309 12.838C28.3416 13.0713 28.8036 13.188 29.3169 13.188ZM33.8083 13.986L33.8783 13.132C33.9436 13.1413 34.0043 13.1553 34.0603 13.174C34.1256 13.1833 34.1816 13.188 34.2283 13.188C34.5269 13.188 34.7649 13.076 34.9423 12.852C35.1289 12.628 35.2689 12.3293 35.3623 11.956C35.4556 11.5827 35.5209 11.1627 35.5583 10.696C35.5956 10.22 35.6283 9.744 35.6563 9.268L35.7823 6.65H41.1723V14H40.1783V7.224L40.4303 7.518H36.4263L36.6643 7.21L36.5523 9.338C36.5243 9.97267 36.4729 10.5793 36.3983 11.158C36.3329 11.7367 36.2256 12.2453 36.0763 12.684C35.9363 13.1227 35.7403 13.468 35.4883 13.72C35.2363 13.9627 34.9143 14.084 34.5223 14.084C34.4103 14.084 34.2936 14.0747 34.1723 14.056C34.0603 14.0373 33.9389 14.014 33.8083 13.986ZM47.022 14.07C46.3127 14.07 45.6733 13.9113 45.104 13.594C44.544 13.2673 44.1007 12.824 43.774 12.264C43.4473 11.6947 43.284 11.046 43.284 10.318C43.284 9.58067 43.4473 8.932 43.774 8.372C44.1007 7.812 44.544 7.37333 45.104 7.056C45.664 6.73867 46.3033 6.58 47.022 6.58C47.75 6.58 48.394 6.73867 48.954 7.056C49.5233 7.37333 49.9667 7.812 50.284 8.372C50.6107 8.932 50.774 9.58067 50.774 10.318C50.774 11.046 50.6107 11.6947 50.284 12.264C49.9667 12.824 49.5233 13.2673 48.954 13.594C48.3847 13.9113 47.7407 14.07 47.022 14.07ZM47.022 13.188C47.554 13.188 48.0253 13.0713 48.436 12.838C48.8467 12.5953 49.1687 12.2593 49.402 11.83C49.6447 11.3913 49.766 10.8873 49.766 10.318C49.766 9.73933 49.6447 9.23533 49.402 8.806C49.1687 8.37667 48.8467 8.04533 48.436 7.812C48.0253 7.56933 47.5587 7.448 47.036 7.448C46.5133 7.448 46.0467 7.56933 45.636 7.812C45.2253 8.04533 44.8987 8.37667 44.656 8.806C44.4133 9.23533 44.292 9.73933 44.292 10.318C44.292 10.8873 44.4133 11.3913 44.656 11.83C44.8987 12.2593 45.2253 12.5953 45.636 12.838C46.0467 13.0713 46.5087 13.188 47.022 13.188ZM52.8984 14V6.65H56.1464C56.977 6.65 57.6304 6.80867 58.1064 7.126C58.5917 7.44333 58.8344 7.91 58.8344 8.526C58.8344 9.12333 58.6057 9.58533 58.1484 9.912C57.691 10.2293 57.089 10.388 56.3424 10.388L56.5384 10.094C57.4157 10.094 58.0597 10.2573 58.4704 10.584C58.881 10.9107 59.0864 11.382 59.0864 11.998C59.0864 12.6327 58.853 13.1273 58.3864 13.482C57.929 13.8273 57.215 14 56.2444 14H52.8984ZM53.8644 13.216H56.2024C56.8277 13.216 57.299 13.118 57.6164 12.922C57.943 12.7167 58.1064 12.39 58.1064 11.942C58.1064 11.494 57.9617 11.1673 57.6724 10.962C57.383 10.7567 56.9257 10.654 56.3004 10.654H53.8644V13.216ZM53.8644 9.912H56.0764C56.6457 9.912 57.0797 9.80467 57.3784 9.59C57.6864 9.37533 57.8404 9.06267 57.8404 8.652C57.8404 8.24133 57.6864 7.93333 57.3784 7.728C57.0797 7.52267 56.6457 7.42 56.0764 7.42H53.8644V9.912ZM61.416 14V6.65H62.41V9.898H67.044V6.65H68.038V14H67.044V10.752H62.41V14H61.416ZM75.4272 14V12.376L75.3852 12.11V9.394C75.3852 8.76867 75.2079 8.288 74.8532 7.952C74.5079 7.616 73.9899 7.448 73.2992 7.448C72.8232 7.448 72.3706 7.52733 71.9412 7.686C71.5119 7.84467 71.1479 8.05467 70.8492 8.316L70.4012 7.574C70.7746 7.25667 71.2226 7.014 71.7452 6.846C72.2679 6.66867 72.8186 6.58 73.3972 6.58C74.3492 6.58 75.0819 6.818 75.5952 7.294C76.1179 7.76067 76.3792 8.47467 76.3792 9.436V14H75.4272ZM72.8932 14.07C72.3426 14.07 71.8619 13.9813 71.4512 13.804C71.0499 13.6173 70.7419 13.3653 70.5272 13.048C70.3126 12.7213 70.2052 12.348 70.2052 11.928C70.2052 11.5453 70.2939 11.2 70.4712 10.892C70.6579 10.5747 70.9566 10.3227 71.3672 10.136C71.7872 9.94 72.3472 9.842 73.0472 9.842H75.5812V10.584H73.0752C72.3659 10.584 71.8712 10.71 71.5912 10.962C71.3206 11.214 71.1852 11.5267 71.1852 11.9C71.1852 12.32 71.3486 12.656 71.6752 12.908C72.0019 13.16 72.4592 13.286 73.0472 13.286C73.6072 13.286 74.0879 13.16 74.4892 12.908C74.8999 12.6467 75.1986 12.2733 75.3852 11.788L75.6092 12.474C75.4226 12.9593 75.0959 13.3467 74.6292 13.636C74.1719 13.9253 73.5932 14.07 72.8932 14.07ZM85.7694 14.07C85.0414 14.07 84.3881 13.9113 83.8094 13.594C83.2401 13.2673 82.7921 12.824 82.4654 12.264C82.1387 11.6947 81.9754 11.046 81.9754 10.318C81.9754 9.58067 82.1387 8.932 82.4654 8.372C82.7921 7.812 83.2401 7.37333 83.8094 7.056C84.3881 6.73867 85.0414 6.58 85.7694 6.58C86.3947 6.58 86.9594 6.70133 87.4634 6.944C87.9674 7.18667 88.3641 7.55067 88.6534 8.036L87.9114 8.54C87.6594 8.16667 87.3467 7.89133 86.9734 7.714C86.6001 7.53667 86.1941 7.448 85.7554 7.448C85.2327 7.448 84.7614 7.56933 84.3414 7.812C83.9214 8.04533 83.5901 8.37667 83.3474 8.806C83.1047 9.23533 82.9834 9.73933 82.9834 10.318C82.9834 10.8967 83.1047 11.4007 83.3474 11.83C83.5901 12.2593 83.9214 12.5953 84.3414 12.838C84.7614 13.0713 85.2327 13.188 85.7554 13.188C86.1941 13.188 86.6001 13.0993 86.9734 12.922C87.3467 12.7447 87.6594 12.474 87.9114 12.11L88.6534 12.614C88.3641 13.09 87.9674 13.454 87.4634 13.706C86.9594 13.9487 86.3947 14.07 85.7694 14.07ZM91.8413 14V7.252L92.0933 7.518H89.0553V6.65H95.6213V7.518H92.5833L92.8353 7.252V14H91.8413ZM99.7407 14.07C99.0314 14.07 98.3921 13.9113 97.8227 13.594C97.2627 13.2673 96.8194 12.824 96.4927 12.264C96.1661 11.6947 96.0027 11.046 96.0027 10.318C96.0027 9.58067 96.1661 8.932 96.4927 8.372C96.8194 7.812 97.2627 7.37333 97.8227 7.056C98.3827 6.73867 99.0221 6.58 99.7407 6.58C100.469 6.58 101.113 6.73867 101.673 7.056C102.242 7.37333 102.685 7.812 103.003 8.372C103.329 8.932 103.493 9.58067 103.493 10.318C103.493 11.046 103.329 11.6947 103.003 12.264C102.685 12.824 102.242 13.2673 101.673 13.594C101.103 13.9113 100.459 14.07 99.7407 14.07ZM99.7407 13.188C100.273 13.188 100.744 13.0713 101.155 12.838C101.565 12.5953 101.887 12.2593 102.121 11.83C102.363 11.3913 102.485 10.8873 102.485 10.318C102.485 9.73933 102.363 9.23533 102.121 8.806C101.887 8.37667 101.565 8.04533 101.155 7.812C100.744 7.56933 100.277 7.448 99.7547 7.448C99.2321 7.448 98.7654 7.56933 98.3547 7.812C97.9441 8.04533 97.6174 8.37667 97.3747 8.806C97.1321 9.23533 97.0107 9.73933 97.0107 10.318C97.0107 10.8873 97.1321 11.3913 97.3747 11.83C97.6174 12.2593 97.9441 12.5953 98.3547 12.838C98.7654 13.0713 99.2274 13.188 99.7407 13.188ZM109.411 14.07C108.776 14.07 108.202 13.9253 107.689 13.636C107.176 13.3373 106.765 12.9127 106.457 12.362C106.158 11.802 106.009 11.1207 106.009 10.318C106.009 9.51533 106.158 8.83867 106.457 8.288C106.756 7.728 107.162 7.30333 107.675 7.014C108.188 6.72467 108.767 6.58 109.411 6.58C110.111 6.58 110.736 6.73867 111.287 7.056C111.847 7.364 112.286 7.80267 112.603 8.372C112.92 8.932 113.079 9.58067 113.079 10.318C113.079 11.0647 112.92 11.718 112.603 12.278C112.286 12.838 111.847 13.2767 111.287 13.594C110.736 13.9113 110.111 14.07 109.411 14.07ZM105.617 16.716V6.65H106.569V8.862L106.471 10.332L106.611 11.816V16.716H105.617ZM109.341 13.188C109.864 13.188 110.33 13.0713 110.741 12.838C111.152 12.5953 111.478 12.2593 111.721 11.83C111.964 11.3913 112.085 10.8873 112.085 10.318C112.085 9.74867 111.964 9.24933 111.721 8.82C111.478 8.39067 111.152 8.05467 110.741 7.812C110.33 7.56933 109.864 7.448 109.341 7.448C108.818 7.448 108.347 7.56933 107.927 7.812C107.516 8.05467 107.19 8.39067 106.947 8.82C106.714 9.24933 106.597 9.74867 106.597 10.318C106.597 10.8873 106.714 11.3913 106.947 11.83C107.19 12.2593 107.516 12.5953 107.927 12.838C108.347 13.0713 108.818 13.188 109.341 13.188ZM115.215 14V6.65H116.209V14H115.215ZM115.719 5.026C115.513 5.026 115.341 4.956 115.201 4.816C115.061 4.676 114.991 4.508 114.991 4.312C114.991 4.116 115.061 3.95267 115.201 3.822C115.341 3.682 115.513 3.612 115.719 3.612C115.924 3.612 116.097 3.67733 116.237 3.808C116.377 3.93867 116.447 4.102 116.447 4.298C116.447 4.50333 116.377 4.676 116.237 4.816C116.106 4.956 115.933 5.026 115.719 5.026ZM119.043 14V6.65H120.037V9.898H124.671V6.65H125.665V14H124.671V10.752H120.037V14H119.043ZM133.88 14L130.856 10.36L131.682 9.87L135.056 14H133.88ZM128.49 14V6.65H129.484V14H128.49ZM129.176 10.724V9.87H131.542V10.724H129.176ZM131.766 10.43L130.842 10.29L133.768 6.65H134.846L131.766 10.43ZM141.052 14V12.376L141.01 12.11V9.394C141.01 8.76867 140.833 8.288 140.478 7.952C140.133 7.616 139.615 7.448 138.924 7.448C138.448 7.448 137.996 7.52733 137.566 7.686C137.137 7.84467 136.773 8.05467 136.474 8.316L136.026 7.574C136.4 7.25667 136.848 7.014 137.37 6.846C137.893 6.66867 138.444 6.58 139.022 6.58C139.974 6.58 140.707 6.818 141.22 7.294C141.743 7.76067 142.004 8.47467 142.004 9.436V14H141.052ZM138.518 14.07C137.968 14.07 137.487 13.9813 137.076 13.804C136.675 13.6173 136.367 13.3653 136.152 13.048C135.938 12.7213 135.83 12.348 135.83 11.928C135.83 11.5453 135.919 11.2 136.096 10.892C136.283 10.5747 136.582 10.3227 136.992 10.136C137.412 9.94 137.972 9.842 138.672 9.842H141.206V10.584H138.7C137.991 10.584 137.496 10.71 137.216 10.962C136.946 11.214 136.81 11.5267 136.81 11.9C136.81 12.32 136.974 12.656 137.3 12.908C137.627 13.16 138.084 13.286 138.672 13.286C139.232 13.286 139.713 13.16 140.114 12.908C140.525 12.6467 140.824 12.2733 141.01 11.788L141.234 12.474C141.048 12.9593 140.721 13.3467 140.254 13.636C139.797 13.9253 139.218 14.07 138.518 14.07Z" fill="#6A6A6A"/>
</svg>
